<svg width="0" height="0" class="hidden">
  <symbol xmlns="http://www.w3.org/2000/svg" viewBox="0 0 24 24" id="linkedin">
    <path d="M12 0C5.373 0 0 5.373 0 12s5.373 12 12 12 12-5.373 12-12S18.627 0 12 0zm-2 16H8v-6h2v6zM9 9.109c-.607 0-1.1-.496-1.1-1.109 0-.612.492-1.109 1.1-1.109s1.1.497 1.1 1.109c0 .613-.493 1.109-1.1 1.109zM17 16h-1.998v-2.861c0-1.881-2.002-1.722-2.002 0V16h-2v-6h2v1.093c.872-1.616 4-1.736 4 1.548V16z"></path>
  </symbol>

  <symbol xmlns="http://www.w3.org/2000/svg" viewBox="0 0 24 24" id="linkedin_circle">
    <path d="M12 2c5.514 0 10 4.486 10 10s-4.486 10-10 10S2 17.514 2 12 6.486 2 12 2zm0-2C5.373 0 0 5.373 0 12s5.373 12 12 12 12-5.373 12-12S18.627 0 12 0zm-2 8c0 .557-.447 1.008-1 1.008S8 8.558 8 8c0-.557.447-1.008 1-1.008S10 7.444 10 8zm0 2H8v6h2v-6zm3 0h-2v6h2v-2.861c0-1.722 2.002-1.881 2.002 0V16H17v-3.359c0-3.284-3.128-3.164-4-1.548V10z"></path>
  </symbol>

  <symbol xmlns="http://www.w3.org/2000/svg" viewBox="0 0 24 24" id="linkedin_square">
    <path d="M19 0H5a5 5 0 0 0-5 5v14a5 5 0 0 0 5 5h14a5 5 0 0 0 5-5V5a5 5 0 0 0-5-5zM8 19H5V8h3v11zM6.5 6.732c-.966 0-1.75-.79-1.75-1.764s.784-1.764 1.75-1.764 1.75.79 1.75 1.764-.783 1.764-1.75 1.764zM20 19h-3v-5.604c0-3.368-4-3.113-4 0V19h-3V8h3v1.765c1.396-2.586 7-2.777 7 2.476V19z"></path>
  </symbol>

  <symbol xmlns="http://www.w3.org/2000/svg" viewBox="0 0 24 24" id="github">
    <path d="M12 0C5.374 0 0 5.373 0 12c0 5.302 3.438 9.8 8.207 11.387.599.111.793-.261.793-.577v-2.234c-3.338.726-4.033-1.416-4.033-1.416-.546-1.387-1.333-1.756-1.333-1.756-1.089-.745.083-.729.083-.729 1.205.084 1.839 1.237 1.839 1.237 1.07 1.834 2.807 1.304 3.492.997.107-.775.418-1.305.762-1.604-2.665-.305-5.467-1.334-5.467-5.931 0-1.311.469-2.381 1.236-3.221-.124-.303-.535-1.524.117-3.176 0 0 1.008-.322 3.301 1.23A11.509 11.509 0 0 1 12 5.803c1.02.005 2.047.138 3.006.404 2.291-1.552 3.297-1.23 3.297-1.23.653 1.653.242 2.874.118 3.176.77.84 1.235 1.911 1.235 3.221 0 4.609-2.807 5.624-5.479 5.921.43.372.823 1.102.823 2.222v3.293c0 .319.192.694.801.576C20.566 21.797 24 17.3 24 12c0-6.627-5.373-12-12-12z"></path>
  </symbol>

  <symbol xmlns="http://www.w3.org/2000/svg" viewBox="0 0 24 24" id="github_circle">
    <path d="M12 2c5.514 0 10 4.486 10 10s-4.486 10-10 10S2 17.514 2 12 6.486 2 12 2zm0-2C5.373 0 0 5.373 0 12s5.373 12 12 12 12-5.373 12-12S18.627 0 12 0zm0 6a6 6 0 0 0-1.896 11.693c.3.056.396-.13.396-.289v-1.117c-1.669.363-2.017-.707-2.017-.707-.272-.693-.666-.878-.666-.878-.544-.373.041-.365.041-.365.603.042.92.619.92.619.535.917 1.403.652 1.746.499.054-.388.209-.652.381-.802-1.333-.152-2.733-.667-2.733-2.965 0-.655.234-1.19.618-1.61-.062-.153-.268-.764.058-1.59 0 0 .504-.161 1.65.615A5.782 5.782 0 0 1 12 8.901c.51.002 1.023.069 1.503.202 1.146-.776 1.648-.615 1.648-.615.327.826.121 1.437.06 1.588.385.42.617.955.617 1.61 0 2.305-1.404 2.812-2.74 2.96.216.186.412.551.412 1.111v1.646c0 .16.096.347.4.288A6 6 0 0 0 12 6z"></path>
  </symbol>

  <symbol xmlns="http://www.w3.org/2000/svg" viewBox="0 0 24 24" id="email">
    <path d="M12 .02c-6.627 0-12 5.373-12 12s5.373 12 12 12 12-5.373 12-12-5.373-12-12-12zM18.99 7L12 12.666 5.009 7H18.99zM19 17H5V8.495l7 5.673 7-5.672V17z"></path>
  </symbol>

  <symbol xmlns="http://www.w3.org/2000/svg" viewBox="0 0 24 24" id="email_circle">
    <path d="M12 2.02c5.514 0 10 4.486 10 10s-4.486 10-10 10-10-4.486-10-10 4.486-10 10-10zm0-2c-6.627 0-12 5.373-12 12s5.373 12 12 12 12-5.373 12-12-5.373-12-12-12zm0 12.55L6.008 8h11.983L12 12.57zm0 1.288L6 9.229V16h12V9.229l-6 4.629z"></path>
  </symbol>

</svg>